<svg width="142" height="31" viewBox="0 0 142 31" fill="none" xmlns="http://www.w3.org/2000/svg">
<path d="M54.9535 19.786C54.6339 20.865 54.1276 21.767 53.4345 22.4921C52.7438 23.2172 51.9253 23.7579 50.9815 24.1119C50.0377 24.4658 49.0004 24.6428 47.8698 24.6428C46.2156 24.6428 44.7876 24.2962 43.5807 23.6055C42.3739 22.9149 41.4473 21.9268 40.7984 20.6462C40.1495 19.3657 39.8251 17.8295 39.8251 16.0426C39.8251 14.2557 40.1495 12.7195 40.7984 11.4389C41.4473 10.1584 42.3764 9.17029 43.5807 8.47962C44.7851 7.78895 46.1984 7.44238 47.8182 7.44238C48.966 7.44238 50.0008 7.59723 50.9299 7.90938C51.8565 8.22154 52.6455 8.69837 53.2944 9.33988C53.9433 9.9814 54.4201 10.79 54.7249 11.7683L51.5616 13.1103C51.274 12.0976 50.8365 11.3775 50.2466 10.9474C49.6567 10.5172 48.8972 10.3034 47.9706 10.3034C47.0439 10.3034 46.2623 10.5221 45.579 10.9621C44.8957 11.4021 44.3697 12.046 43.9986 12.8965C43.6274 13.7494 43.4431 14.7989 43.4431 16.045C43.4431 17.2912 43.6152 18.3211 43.9617 19.1813C44.3083 20.0416 44.8171 20.6905 45.493 21.1304C46.1665 21.5704 46.9948 21.7892 47.973 21.7892C48.8849 21.7892 49.6714 21.5458 50.3375 21.0567C51.0036 20.5676 51.4706 19.8253 51.741 18.8298L54.9535 19.7909V19.786Z" fill="#FF4228"/>
<path d="M65.1464 7.43994C66.7981 7.43994 68.2237 7.78651 69.4232 8.47718C70.6201 9.16785 71.5443 10.1559 72.1932 11.4365C72.8421 12.7171 73.1665 14.2532 73.1665 16.0401C73.1665 17.827 72.8421 19.3632 72.1932 20.6438C71.5443 21.9268 70.6201 22.9124 69.4232 23.6031C68.2262 24.2938 66.8006 24.6403 65.1464 24.6403C63.4922 24.6403 62.0642 24.2938 60.8574 23.6031C59.6505 22.9124 58.7239 21.9244 58.075 20.6438C57.4261 19.3632 57.1017 17.827 57.1017 16.0401C57.1017 14.2532 57.4261 12.7171 58.075 11.4365C58.7239 10.1559 59.653 9.16785 60.8574 8.47718C62.0617 7.78651 63.4922 7.43994 65.1464 7.43994ZM65.1464 10.2985C64.2026 10.2985 63.4013 10.5172 62.7426 10.9572C62.0839 11.3972 61.5824 12.0411 61.2383 12.8916C60.8918 13.7445 60.7197 14.794 60.7197 16.0401C60.7197 17.2863 60.8918 18.3162 61.2383 19.1764C61.5849 20.0367 62.0863 20.6856 62.7426 21.1255C63.4013 21.5655 64.2001 21.7843 65.1464 21.7843C66.0927 21.7843 66.8669 21.5655 67.5256 21.1255C68.1844 20.688 68.6858 20.0367 69.0299 19.1764C69.3764 18.3162 69.5485 17.2715 69.5485 16.0401C69.5485 14.8087 69.374 13.742 69.0299 12.8916C68.6833 12.0411 68.1819 11.3947 67.5256 10.9572C66.8669 10.5197 66.0755 10.2985 65.1464 10.2985Z" fill="#FF4228"/>
<path d="M80.1739 21.5825H88.9781V24.3894H76.6837V7.69287H80.1739V21.5825Z" fill="#FF4228"/>
<path d="M91.8883 24.3894V7.69287H104.411V10.4998H95.3785V14.6487H102.487V17.3303H95.3785V21.58H104.765V24.3869H91.8883V24.3894Z" fill="#FF4228"/>
<path d="M122.246 7.69287V24.3894H118.249L112.404 14.5725L110.962 11.8394H110.937L111.038 14.7225V24.3869H107.902V7.69287H111.874L117.718 17.4827L119.161 20.2405H119.213L119.112 17.3573V7.69287H122.248H122.246Z" fill="#FF4228"/>
<path d="M133.048 7.69287C135.664 7.69287 137.686 8.41304 139.119 9.85582C140.552 11.2986 141.27 13.3608 141.27 16.0424C141.27 18.7239 140.552 20.764 139.119 22.2142C137.686 23.6643 135.661 24.3894 133.048 24.3894H126.596V7.69287H133.048ZM132.871 21.6071C134.457 21.6071 135.649 21.1302 136.45 20.1766C137.251 19.2229 137.652 17.844 137.652 16.0399C137.652 14.2358 137.251 12.8569 136.45 11.9033C135.649 10.9496 134.457 10.4728 132.871 10.4728H130.089V21.6046H132.871V21.6071Z" fill="#FF4228"/>
<path d="M8.57313 21.826C7.0566 21.826 5.7023 21.3566 4.7216 20.3759C2.10393 17.7582 3.12396 12.4811 6.99515 8.61236C10.8639 4.74117 16.141 3.72359 18.7587 6.3388C21.3763 8.95647 20.3563 14.2336 16.4851 18.1023C14.0665 20.5209 11.0974 21.826 8.57313 21.826ZM14.885 6.03648C12.6901 6.03648 10.0233 7.24085 7.82347 9.44067C4.4119 12.8522 3.39187 17.3846 5.54991 19.5427C7.7104 21.7007 12.2403 20.6807 15.6519 17.2691C19.0635 13.8575 20.0835 9.32515 17.9254 7.16711C17.1586 6.40025 16.0918 6.03402 14.8826 6.03402L14.885 6.03648Z" fill="#FF4228"/>
<path d="M6.32414 20.3193L8.34208 22.3372C9.35473 23.3499 10.9376 23.694 12.8032 23.3057C14.7572 22.9001 16.7604 21.7473 18.4441 20.0637C20.1277 18.38 21.278 16.3768 21.686 14.4228C22.0744 12.5572 21.7303 10.9744 20.7176 9.9617L18.6997 7.94377V6.28223L21.5484 9.13093C22.8486 10.4312 23.3082 12.3975 22.8363 14.6612C22.3841 16.8365 21.1182 19.051 19.2748 20.8945C17.4314 22.7379 15.2168 24.0037 13.0416 24.4559C12.4591 24.5764 11.8987 24.6354 11.3628 24.6354C9.8119 24.6354 8.47726 24.134 7.51131 23.168L4.6626 20.3193H6.32414Z" fill="#FF4228"/>
<path d="M7.40811 9.02787C9.07457 7.36141 11.0016 6.24553 12.8327 5.75149V0L0 7.47202V22.33L4.78062 19.5501C2.86591 17.0431 3.95968 12.4763 7.41057 9.02787H7.40811ZM18.8595 20.4792C15.212 24.1268 10.3183 25.1443 7.92673 22.7528L5.60402 20.4301L0.587438 23.3476L13.4201 30.7533L26.2528 23.3476L19.7148 19.5452C19.4494 19.8648 19.1643 20.1769 18.8619 20.4792H18.8595ZM16.0698 17.6871C16.1263 17.6305 16.1779 17.574 16.232 17.5199C16.1779 17.5765 16.1238 17.633 16.0698 17.6871ZM14.0076 0V5.51799C15.7281 5.30415 17.2815 5.6925 18.3433 6.75431C18.4638 6.87475 18.5744 7.00256 18.6776 7.13529L18.7022 7.11071L21.1355 9.54403C23.1362 11.5448 22.7503 15.2955 20.4375 18.6039L26.8427 22.3276V7.43269L14.0076 0Z" fill="#FF4228"/>
</svg>
