<svg width="10" height="39" viewBox="0 0 10 39" fill="none" xmlns="http://www.w3.org/2000/svg">
<g clip-path="url(#clip0_611_576)">
<path d="M5.09516 39C7.80404 39 10 36.7344 10 33.9397C10 31.145 7.80404 28.8794 5.09516 28.8794C2.38629 28.8794 0.190308 31.145 0.190308 33.9397C0.190308 36.7344 2.38629 39 5.09516 39Z" fill="#DA3E3E"/>
<path d="M3.61115 25.2867H6.32048C7.62638 25.2867 8.7063 24.2363 8.78242 22.8891L9.92895 2.69456C10.0122 1.23194 8.8847 0 7.467 0H2.46701C1.04931 0 -0.0781899 1.23194 0.00506414 2.69456L1.14921 22.8915C1.22533 24.2363 2.30525 25.2891 3.61115 25.2891V25.2867Z" fill="#DA3E3E"/>
</g>
<defs>
<clipPath id="clip0_611_576">
<rect width="10" height="39" fill="white"/>
</clipPath>
</defs>
</svg>
