<svg width="16" height="16" viewBox="0 0 16 16" fill="none" xmlns="http://www.w3.org/2000/svg">
<path d="M8.87801 0.135313C8.73686 0.494268 8.57311 0.939674 8.4056 1.41327L8.22115 1.93573H7.99153C7.55676 1.93573 6.89425 2.02406 6.50841 2.13494C6.37666 2.17253 6.26562 2.20072 6.26185 2.19696C6.25997 2.1932 6.1941 2.10111 6.11693 1.99211C5.85343 1.61624 5.04411 0.507424 5.0347 0.507424C5.01588 0.507424 4.69404 0.63522 4.62252 0.672807C4.58111 0.693479 4.48324 0.740463 4.40607 0.77805C4.3289 0.813758 4.18021 0.89269 4.0767 0.954709C3.97318 1.01485 3.79814 1.11821 3.6871 1.18399C3.48947 1.30051 3.21656 1.49596 3.04341 1.64443L2.95683 1.72148L3.18268 2.20823C3.30879 2.47698 3.50453 2.89795 3.61934 3.14415L3.82826 3.59143L3.68521 3.73614C3.31632 4.11201 2.87025 4.69649 2.71968 5.0047C2.68957 5.06484 2.65945 5.11183 2.65004 5.11183C2.64251 5.11183 2.37525 5.06672 2.05717 5.01034C1.43795 4.90134 0.602282 4.76791 0.594754 4.7773C0.579697 4.79234 0.400894 5.24338 0.331255 5.44071C0.235266 5.7151 0.0771674 6.48939 0.0112928 7.01936L0 7.11333L0.956123 7.4798L1.91225 7.84628L1.91601 8.02482C1.92354 8.34618 1.9593 8.74085 1.99882 8.94382C2.01953 9.05282 2.04964 9.2088 2.0647 9.28774C2.07976 9.36855 2.11363 9.50574 2.1381 9.59407C2.16445 9.6824 2.18515 9.76697 2.18515 9.78201C2.18515 9.79516 2.01012 9.93235 1.79555 10.0846C1.57911 10.2368 1.20645 10.5056 0.965533 10.6822C0.57405 10.9679 0.528879 11.0073 0.53829 11.0449C0.579697 11.2103 0.94483 11.9169 1.18951 12.3078C1.32878 12.5259 1.60922 12.928 1.68639 13.0182L1.74285 13.0821L2.07223 12.9299C2.39595 12.7777 3.45748 12.2928 3.5704 12.244L3.62687 12.2176L3.88096 12.4526C4.19904 12.7495 4.35713 12.8679 4.78814 13.131C5.04788 13.2889 5.13069 13.349 5.12693 13.3753C5.12504 13.3941 5.08552 13.6422 5.03847 13.926C4.95565 14.4259 4.82014 15.3317 4.82014 15.3787C4.82014 15.3919 4.84837 15.4125 4.88225 15.4276C5.30573 15.5967 5.68404 15.7132 6.22797 15.841C6.59122 15.9275 7.11822 16.0177 7.13704 15.997C7.17092 15.9594 7.62828 14.7585 7.8052 14.2511L7.87672 14.0387H8.1628C8.65592 14.0387 9.00412 13.9899 9.50288 13.847C9.7325 13.7831 9.77767 13.7756 9.79838 13.7963C9.81155 13.8113 10.0863 14.1947 10.4101 14.6495C10.7338 15.1043 11.0011 15.4802 11.0048 15.4821C11.0105 15.4896 11.1761 15.4125 11.6843 15.1626C11.8951 15.0592 12.1416 14.9183 12.3336 14.7923C12.6065 14.6119 12.9566 14.3545 13.0507 14.2643C13.0846 14.2342 13.0789 14.2173 12.8982 13.8113C12.7947 13.5802 12.599 13.1536 12.4654 12.8641L12.2207 12.3398L12.4409 12.103C12.742 11.7835 13.0149 11.4114 13.2032 11.0656C13.2502 10.9754 13.2973 10.8983 13.3048 10.8946C13.3123 10.8908 13.4836 10.9153 13.685 10.9491C14.7371 11.1257 15.3469 11.2216 15.3676 11.2141C15.409 11.1972 15.7026 10.3627 15.7836 10.0357C15.7986 9.96806 15.8212 9.89477 15.8306 9.87221C15.8475 9.83275 15.968 9.1543 15.9887 8.97952L16 8.89119L15.9097 8.85173C15.793 8.79911 15.0062 8.50217 14.4717 8.30672L14.0426 8.15073V7.85755C14.0426 7.52115 14.0238 7.32946 13.9654 7.01561C13.9315 6.82955 13.8393 6.42549 13.8054 6.31085C13.7979 6.2883 13.8882 6.215 14.1593 6.02143C14.5677 5.73013 15.4674 5.06108 15.4824 5.03477C15.4956 5.0141 15.3676 4.7134 15.2133 4.40707C14.9949 3.96918 14.7126 3.52754 14.4152 3.15355L14.2703 2.97125L14.02 3.08025C13.6737 3.23248 13.1166 3.48807 12.727 3.676L12.4014 3.83387L12.1492 3.59519C11.8819 3.34336 11.5582 3.09153 11.3417 2.96373C11.2288 2.89795 10.9973 2.74573 10.9502 2.70626C10.9427 2.69874 10.9709 2.4751 11.0124 2.20635C11.2232 0.8645 11.2589 0.63522 11.2533 0.629582C11.2495 0.627702 11.1159 0.57508 10.9559 0.513062C10.6171 0.381508 10.2049 0.244315 10.1447 0.244315C10.1221 0.244315 10.0562 0.227401 9.99788 0.208608C9.84731 0.155986 9.0794 0.00187935 8.97024 0C8.94013 0 8.9213 0.0300696 8.87801 0.135313ZM8.53735 5.06484C9.05682 5.15693 9.59887 5.41064 9.99035 5.74705C10.4534 6.14547 10.8561 6.87277 10.9653 7.50612C11.0067 7.74479 11.0029 8.15825 10.9578 8.42324C10.875 8.90247 10.6679 9.40989 10.4214 9.73502C9.98659 10.312 9.23374 10.7649 8.50159 10.8908C8.28703 10.9265 7.87296 10.9265 7.6471 10.8908C7.21797 10.8213 6.73238 10.6465 6.43124 10.4529C5.76121 10.0207 5.26432 9.27834 5.10999 8.47586C5.06482 8.23718 5.06482 7.80305 5.10999 7.54558C5.27938 6.58899 5.72921 5.92558 6.54229 5.42944C6.75685 5.29788 7.09375 5.16257 7.35161 5.10055C7.71486 5.0141 8.17786 5.00094 8.53735 5.06484Z" fill="white"/>
</svg>
